<svg width="22" height="20" viewBox="0 0 22 20" fill="none" xmlns="http://www.w3.org/2000/svg">
<path d="M15.6431 4.78187C15.9644 4.69723 16.2984 4.65492 16.6451 4.65492C17.2137 4.6555 17.7758 4.77729 18.2936 5.01216C18.8115 5.24703 19.2733 5.58958 19.6482 6.01696C20.0232 6.44435 20.3027 6.94675 20.4681 7.49064C20.6335 8.03454 20.6809 8.60744 20.6073 9.17112C20.5337 9.73481 20.3407 10.2763 20.0412 10.7596C19.7417 11.2428 19.3425 11.6566 18.8704 11.9735C18.3982 12.2903 17.8639 12.5029 17.3031 12.597C16.7423 12.6911 16.1678 12.6645 15.6181 12.5192M15.6431 4.78187L15.6451 4.65492C15.6466 3.66731 15.2825 2.71407 14.6229 1.97885C13.9632 1.24362 13.0548 0.778442 12.0725 0.672923C11.0902 0.567403 10.1036 0.829012 9.30271 1.40735C8.50187 1.98568 7.94347 2.83983 7.73508 3.80521M15.6431 4.78187C15.6224 5.44035 15.4393 6.08352 15.1101 6.65422M15.6181 12.5192C15.6361 12.3992 15.6451 12.2769 15.6451 12.1523C15.6452 11.5762 15.4462 11.0177 15.0817 10.5714C14.7173 10.1251 14.2098 9.81838 13.6451 9.70315M15.6181 12.5192C15.5301 13.1119 15.2319 13.6533 14.778 14.0447C14.3241 14.4361 13.7445 14.6514 13.1451 14.6514H12.6451C11.5842 14.6514 10.5668 15.0727 9.81665 15.8226C9.06651 16.5725 8.64508 17.5895 8.64508 18.65M7.73508 3.80521C7.04743 3.61002 6.32001 3.60261 5.62852 3.78374C4.93703 3.96488 4.30673 4.32795 3.8032 4.83518C3.29968 5.34241 2.94133 5.97525 2.76544 6.66788C2.58955 7.3605 2.60255 8.08758 2.80308 8.77348M7.73508 3.80521C8.73745 4.08897 9.58953 4.75246 10.1101 5.65457M2.80308 8.77348C2.11113 8.97697 1.51663 9.42278 1.12661 10.0293C0.736593 10.6358 0.578141 11.3625 0.680264 12.0762C0.782387 12.79 1.13825 13.4431 1.68271 13.916C2.22717 14.3889 2.92381 14.65 3.64508 14.6514C4.26573 14.6517 4.87121 14.4596 5.37806 14.1016C5.88492 13.7435 6.2682 13.2371 6.47508 12.6521M2.80308 8.77348C2.89375 9.0847 3.02008 9.37793 3.18008 9.65317" stroke="#262184" stroke-width="1.3" stroke-linecap="round" stroke-linejoin="round"/>
<path d="M10.4811 9.39787C9.9711 9.88887 9.0981 9.97387 8.3521 9.55487C7.6061 9.13487 7.2251 8.34487 7.3801 7.65387" stroke="#262184" stroke-width="1.3" stroke-linecap="round"/>
</svg>
