<svg width="20" height="20" viewBox="0 0 20 20" fill="none" xmlns="http://www.w3.org/2000/svg">
<path d="M9.99996 18.3334C7.78982 18.3334 5.67021 17.4554 4.1074 15.8926C2.5446 14.3298 1.66663 12.2102 1.66663 10C1.66663 7.78988 2.5446 5.67027 4.1074 4.10746C5.67021 2.54466 7.78982 1.66669 9.99996 1.66669C12.2101 1.66669 14.3297 2.45686 15.8925 3.86339C17.4553 5.26991 18.3333 7.17756 18.3333 9.16669C18.3333 10.2718 17.8943 11.3316 17.1129 12.113C16.3315 12.8944 15.2717 13.3334 14.1666 13.3334H12.2916C12.0208 13.3334 11.7553 13.4088 11.5249 13.5512C11.2946 13.6935 11.1084 13.8973 10.9873 14.1395C10.8661 14.3817 10.8149 14.6529 10.8392 14.9227C10.8635 15.1924 10.9625 15.45 11.125 15.6667L11.375 16C11.5375 16.2167 11.6364 16.4743 11.6607 16.7441C11.6851 17.0138 11.6338 17.285 11.5127 17.5272C11.3915 17.7694 11.2054 17.9732 10.975 18.1156C10.7446 18.2579 10.4791 18.3334 10.2083 18.3334H9.99996Z" stroke="#262184" stroke-width="1.3" stroke-linecap="round" stroke-linejoin="round"/>
<path d="M11.25 5.83333C11.4802 5.83333 11.6667 5.64679 11.6667 5.41667C11.6667 5.18655 11.4802 5 11.25 5C11.0199 5 10.8334 5.18655 10.8334 5.41667C10.8334 5.64679 11.0199 5.83333 11.25 5.83333Z" fill="#262184" stroke="#262184" stroke-width="1.3" stroke-linecap="round" stroke-linejoin="round"/>
<path d="M14.5833 9.16665C14.8134 9.16665 15 8.9801 15 8.74998C15 8.51986 14.8134 8.33331 14.5833 8.33331C14.3532 8.33331 14.1666 8.51986 14.1666 8.74998C14.1666 8.9801 14.3532 9.16665 14.5833 9.16665Z" fill="#262184" stroke="#262184" stroke-width="1.3" stroke-linecap="round" stroke-linejoin="round"/>
<path d="M5.41667 10.8333C5.64679 10.8333 5.83333 10.6468 5.83333 10.4167C5.83333 10.1865 5.64679 10 5.41667 10C5.18655 10 5 10.1865 5 10.4167C5 10.6468 5.18655 10.8333 5.41667 10.8333Z" fill="#262184" stroke="#262184" stroke-width="1.3" stroke-linecap="round" stroke-linejoin="round"/>
<path d="M7.08329 6.66665C7.31341 6.66665 7.49996 6.4801 7.49996 6.24998C7.49996 6.01986 7.31341 5.83331 7.08329 5.83331C6.85317 5.83331 6.66663 6.01986 6.66663 6.24998C6.66663 6.4801 6.85317 6.66665 7.08329 6.66665Z" fill="#262184" stroke="#262184" stroke-width="1.3" stroke-linecap="round" stroke-linejoin="round"/>
</svg>
