<svg width="17" height="18" viewBox="0 0 17 18" fill="none" xmlns="http://www.w3.org/2000/svg">
<path d="M1.4862 10.2496C1.3285 10.2501 1.17389 10.2077 1.04033 10.1272C0.906763 10.0467 0.799728 9.93155 0.731658 9.79502C0.663588 9.6585 0.637277 9.50624 0.655783 9.35594C0.674288 9.20563 0.73685 9.06345 0.8362 8.94592L9.0862 0.788042C9.14808 0.719484 9.23242 0.673156 9.32535 0.656662C9.41829 0.640167 9.5143 0.654486 9.59764 0.697268C9.68098 0.74005 9.74669 0.808754 9.78398 0.892101C9.82127 0.975448 9.82793 1.06849 9.80287 1.15595L8.20287 5.97069C8.15569 6.09188 8.13984 6.22224 8.15669 6.3506C8.17354 6.47895 8.22258 6.60147 8.29961 6.70764C8.37663 6.81381 8.47934 6.90046 8.59893 6.96016C8.71851 7.01986 8.8514 7.05083 8.9862 7.05041H14.8195C14.9772 7.0499 15.1318 7.09233 15.2654 7.1728C15.399 7.25326 15.506 7.36844 15.5741 7.50497C15.6421 7.64149 15.6685 7.79375 15.6499 7.94405C15.6314 8.09436 15.5689 8.23654 15.4695 8.35407L7.21953 16.5119C7.15765 16.5805 7.07332 16.6268 6.98038 16.6433C6.88745 16.6598 6.79143 16.6455 6.70809 16.6027C6.62475 16.5599 6.55904 16.4912 6.52175 16.4079C6.48446 16.3245 6.4778 16.2315 6.50287 16.144L8.10287 11.3293C8.15004 11.2081 8.16589 11.0777 8.14904 10.9494C8.13219 10.821 8.08315 10.6985 8.00612 10.5923C7.9291 10.4862 7.82639 10.3995 7.7068 10.3398C7.58722 10.2801 7.45433 10.2492 7.31953 10.2496H1.4862Z" stroke="#262184" stroke-width="1.3" stroke-linecap="round" stroke-linejoin="round"/>
</svg>
