<svg width="22" height="22" viewBox="0 0 22 22" fill="none" xmlns="http://www.w3.org/2000/svg">
<path d="M9.625 11H5.5C4.74375 11 4.125 10.3812 4.125 9.625V5.5C4.125 4.74375 4.74375 4.125 5.5 4.125H9.625C10.3812 4.125 11 4.74375 11 5.5V9.625C11 10.3812 10.3812 11 9.625 11ZM17.875 11H13.75C12.9937 11 12.375 10.3812 12.375 9.625V5.5C12.375 4.74375 12.9937 4.125 13.75 4.125H17.875C18.6313 4.125 19.25 4.74375 19.25 5.5V9.625C19.25 10.3812 18.6313 11 17.875 11Z" fill="#5765F2"/>
<path d="M7.5625 16.5C8.9375 15.125 9.625 13.0625 9.625 11V8.25M15.8125 16.5C17.1875 15.125 17.875 13.0625 17.875 11V8.25" stroke="#5765F2" stroke-width="2" stroke-linecap="round"/>
</svg>
