<svg width="20" height="20" viewBox="0 0 20 20" fill="none" xmlns="http://www.w3.org/2000/svg">
<path d="M9.18084 2.345C9.21654 2.15384 9.31798 1.98118 9.46758 1.85693C9.61719 1.73269 9.80553 1.66467 10 1.66467C10.1945 1.66467 10.3828 1.73269 10.5324 1.85693C10.682 1.98118 10.7835 2.15384 10.8192 2.345L11.695 6.97667C11.7572 7.30596 11.9172 7.60885 12.1542 7.84581C12.3912 8.08277 12.694 8.2428 13.0233 8.305L17.655 9.18084C17.8462 9.21654 18.0188 9.31798 18.1431 9.46758C18.2673 9.61719 18.3353 9.80553 18.3353 10C18.3353 10.1945 18.2673 10.3828 18.1431 10.5324C18.0188 10.682 17.8462 10.7835 17.655 10.8192L13.0233 11.695C12.694 11.7572 12.3912 11.9172 12.1542 12.1542C11.9172 12.3912 11.7572 12.694 11.695 13.0233L10.8192 17.655C10.7835 17.8462 10.682 18.0188 10.5324 18.1431C10.3828 18.2673 10.1945 18.3353 10 18.3353C9.80553 18.3353 9.61719 18.2673 9.46758 18.1431C9.31798 18.0188 9.21654 17.8462 9.18084 17.655L8.305 13.0233C8.2428 12.694 8.08277 12.3912 7.84581 12.1542C7.60885 11.9172 7.30596 11.7572 6.97667 11.695L2.345 10.8192C2.15384 10.7835 1.98118 10.682 1.85693 10.5324C1.73269 10.3828 1.66467 10.1945 1.66467 10C1.66467 9.80553 1.73269 9.61719 1.85693 9.46758C1.98118 9.31798 2.15384 9.21654 2.345 9.18084L6.97667 8.305C7.30596 8.2428 7.60885 8.08277 7.84581 7.84581C8.08277 7.60885 8.2428 7.30596 8.305 6.97667L9.18084 2.345Z" stroke="#262184" stroke-width="1.3" stroke-linecap="round" stroke-linejoin="round"/>
<path d="M16.6666 1.66666V4.99999" stroke="#262184" stroke-width="1.3" stroke-linecap="round" stroke-linejoin="round"/>
<path d="M18.3333 3.33334H15" stroke="#262184" stroke-width="1.3" stroke-linecap="round" stroke-linejoin="round"/>
<path d="M3.33329 18.3333C4.25377 18.3333 4.99996 17.5871 4.99996 16.6667C4.99996 15.7462 4.25377 15 3.33329 15C2.41282 15 1.66663 15.7462 1.66663 16.6667C1.66663 17.5871 2.41282 18.3333 3.33329 18.3333Z" stroke="#262184" stroke-width="1.3" stroke-linecap="round" stroke-linejoin="round"/>
</svg>
