<svg width="22" height="22" viewBox="0 0 22 22" fill="none" xmlns="http://www.w3.org/2000/svg">
<path d="M1.51941 8.46488C1.51941 9.04787 1.74849 9.60698 2.15625 10.0192C2.56402 10.4314 3.11706 10.663 3.69373 10.663C4.27039 10.663 4.82344 10.4314 5.2312 10.0192C5.63897 9.60698 5.86805 9.04787 5.86805 8.46488C5.86805 7.88189 5.63897 7.32278 5.2312 6.91055C4.82344 6.49831 4.27039 6.26672 3.69373 6.26672C3.11706 6.26672 2.56402 6.49831 2.15625 6.91055C1.74849 7.32278 1.51941 7.88189 1.51941 8.46488ZM15.4329 8.46488C15.4329 8.75355 15.4892 9.03939 15.5984 9.30608C15.7077 9.57277 15.8679 9.8151 16.0698 10.0192C16.2717 10.2233 16.5114 10.3852 16.7752 10.4957C17.039 10.6062 17.3217 10.663 17.6072 10.663C17.8928 10.663 18.1755 10.6062 18.4393 10.4957C18.7031 10.3852 18.9428 10.2233 19.1447 10.0192C19.3466 9.8151 19.5068 9.57277 19.616 9.30608C19.7253 9.03939 19.7816 8.75355 19.7816 8.46488C19.7816 7.88189 19.5525 7.32278 19.1447 6.91055C18.7369 6.49831 18.1839 6.26672 17.6072 6.26672C17.0306 6.26672 16.4775 6.49831 16.0698 6.91055C15.662 7.32278 15.4329 7.88189 15.4329 8.46488Z" stroke="#262184" stroke-width="1.3" stroke-linecap="round" stroke-linejoin="round"/>
<path d="M14.5618 20.6455V14.5939C13.4696 14.4917 12.4306 14.0702 11.5717 13.3807C10.7127 12.6913 10.071 11.7638 9.72509 10.7116L8.97661 8.44244C8.91689 8.26041 8.89708 8.06743 8.91856 7.87689C8.94005 7.68634 9.00231 7.50282 9.10103 7.33905C9.19974 7.17529 9.33254 7.03522 9.4902 6.92857C9.64786 6.82192 9.8266 6.75125 10.014 6.72148C10.3295 6.68152 10.6488 6.75531 10.9158 6.92987C11.1827 7.10444 11.3803 7.3686 11.4736 7.67587L12.2008 9.88032C12.4027 10.4926 12.7902 11.025 13.3083 11.4021C13.8264 11.7792 14.4487 11.9819 15.0871 11.9814H18.9095C19.138 11.9813 19.3642 12.0267 19.5753 12.1149C19.7864 12.2032 19.9782 12.3327 20.1399 12.4959C20.3015 12.6591 20.4297 12.8529 20.5173 13.0663C20.6048 13.2796 20.6499 13.5083 20.65 13.7392V20.65" stroke="#262184" stroke-width="1.3" stroke-linecap="round" stroke-linejoin="round"/>
<path d="M9.2753 9.3429L9.09751 9.87672C8.89586 10.4905 8.50782 11.0243 7.98863 11.4022C7.46945 11.7801 6.84557 11.9828 6.20583 11.9814H2.38788C1.92751 11.9816 1.48602 12.1665 1.16023 12.4953C0.834448 12.8242 0.650966 13.2702 0.650024 13.7356V20.6455M6.73918 20.6455V14.5939C7.50116 14.5224 8.24081 14.2951 8.91319 13.9257C9.58557 13.5564 10.1766 13.0526 10.6505 12.4451M10.206 0.650024V2.44737M13.6853 2.52376L12.4283 3.79628M6.72674 2.52376L7.98368 3.79628" stroke="#262184" stroke-width="1.3" stroke-linecap="round" stroke-linejoin="round"/>
</svg>
