<svg width="20" height="20" viewBox="0 0 20 20" fill="none" xmlns="http://www.w3.org/2000/svg">
<path d="M13.3333 17.5V15.8333C13.3333 14.9493 12.9821 14.1014 12.357 13.4763C11.7319 12.8512 10.884 12.5 9.99996 12.5H4.99996C4.1159 12.5 3.26806 12.8512 2.64294 13.4763C2.01782 14.1014 1.66663 14.9493 1.66663 15.8333V17.5" stroke="#262184" stroke-width="1.3" stroke-linecap="round" stroke-linejoin="round"/>
<path d="M13.3334 2.60672C14.0482 2.79203 14.6812 3.20944 15.1331 3.79344C15.585 4.37744 15.8302 5.09496 15.8302 5.83339C15.8302 6.57181 15.585 7.28934 15.1331 7.87333C14.6812 8.45733 14.0482 8.87474 13.3334 9.06005" stroke="#262184" stroke-width="1.3" stroke-linecap="round" stroke-linejoin="round"/>
<path d="M18.3334 17.5V15.8333C18.3328 15.0948 18.087 14.3773 17.6345 13.7936C17.182 13.2099 16.5485 12.793 15.8334 12.6083" stroke="#262184" stroke-width="1.3" stroke-linecap="round" stroke-linejoin="round"/>
<path d="M7.49996 9.16667C9.34091 9.16667 10.8333 7.67428 10.8333 5.83333C10.8333 3.99238 9.34091 2.5 7.49996 2.5C5.65901 2.5 4.16663 3.99238 4.16663 5.83333C4.16663 7.67428 5.65901 9.16667 7.49996 9.16667Z" stroke="#262184" stroke-width="1.3" stroke-linecap="round" stroke-linejoin="round"/>
</svg>
